<?xml version="1.0" standalone="no"?>
<!DOCTYPE svg PUBLIC "-//W3C//DTD SVG 20010904//EN"
 "http://www.w3.org/TR/2001/REC-SVG-20010904/DTD/svg10.dtd">
<svg version="1.0" xmlns="http://www.w3.org/2000/svg"
 width="500.000000pt" height="500.000000pt" viewBox="0 0 500.000000 500.000000"
 preserveAspectRatio="xMidYMid meet">

<g transform="translate(0.000000,500.000000) scale(0.100000,-0.100000)"
fill="#000000" stroke="none">
<path d="M1695 2971 c-58 -34 -108 -80 -102 -96 3 -6 -1 -24 -8 -40 -7 -17
-14 -24 -14 -17 -1 7 4 22 9 33 18 33 3 20 -21 -18 -13 -21 -27 -43 -31 -48
-4 -7 3 -11 17 -11 13 0 21 4 19 8 -3 5 -10 6 -15 3 -5 -4 -9 -2 -9 4 0 5 4
12 9 15 11 7 43 -29 34 -38 -5 -4 -3 -7 2 -6 6 1 47 2 93 1 72 -1 82 -3 82
-19 0 -24 19 -42 46 -42 13 0 26 -4 29 -10 3 -5 24 -10 46 -10 21 0 39 -4 39
-10 0 -5 18 -10 40 -10 29 0 40 -4 40 -15 0 -10 10 -15 33 -15 26 0 36 -6 45
-25 8 -17 16 -23 28 -18 11 4 15 2 11 -4 -5 -8 1 -7 18 0 13 7 20 14 15 15 -6
2 -10 10 -10 18 0 8 -4 22 -9 32 -5 9 -31 68 -57 131 -70 167 -134 220 -264
221 -53 0 -74 -5 -115 -29z"/>
<path d="M2670 2965 c0 -5 5 -17 10 -25 5 -8 10 -10 10 -5 0 6 -5 17 -10 25
-5 8 -10 11 -10 5z"/>
<path d="M2690 2914 c0 -6 7 -19 16 -30 14 -18 14 -18 3 6 -14 31 -19 36 -19
24z"/>
<path d="M2720 2855 c0 -5 5 -17 10 -25 5 -8 10 -10 10 -5 0 6 -5 17 -10 25
-5 8 -10 11 -10 5z"/>
<path d="M1494 2733 c-35 -49 -38 -59 -8 -28 16 17 30 36 30 43 1 16 1 16 -22
-15z"/>
<path d="M2167 2553 c-4 -3 -7 -11 -7 -17 0 -6 5 -5 12 2 6 6 9 14 7 17 -3 3
-9 2 -12 -2z"/>
<path d="M2120 2475 c-7 -9 -8 -15 -2 -15 5 0 12 7 16 15 3 8 4 15 2 15 -2 0
-9 -7 -16 -15z"/>
<path d="M3251 2415 c-17 -20 -31 -42 -31 -50 0 -7 -4 -16 -9 -20 -6 -3 -6 6
-1 23 l8 29 -44 -16 c-24 -9 -47 -21 -51 -25 -4 -5 -2 -6 5 -2 7 4 12 2 12 -5
0 -10 3 -10 12 -1 16 16 38 15 38 -2 0 -7 -6 -26 -14 -41 -14 -27 -14 -27 -18
-4 -3 27 -38 40 -38 15 0 -10 6 -13 17 -9 12 5 15 2 10 -10 -3 -9 -2 -17 3
-17 5 0 7 -7 3 -16 -5 -15 -7 -15 -15 0 -13 23 -22 20 -34 -12 -10 -25 -9 -28
9 -27 11 1 29 13 41 28 53 65 89 119 89 133 0 8 4 14 8 14 3 0 14 11 23 25 23
35 13 31 -23 -10z m-117 -160 c3 -8 1 -15 -4 -15 -6 0 -10 7 -10 15 0 8 2 15
4 15 2 0 6 -7 10 -15z"/>
<path d="M3160 2340 c0 -5 5 -10 10 -10 6 0 10 5 10 10 0 6 -4 10 -10 10 -5 0
-10 -4 -10 -10z"/>
<path d="M3068 2203 c10 -4 10 -8 1 -19 -14 -17 -33 -19 -23 -2 4 7 3 8 -4 4
-6 -4 -9 -13 -6 -21 5 -12 11 -11 35 6 30 21 31 40 1 38 -11 0 -13 -2 -4 -6z"/>
<path d="M2984 2124 c-18 -14 -18 -14 6 -3 31 14 36 19 24 19 -6 0 -19 -7 -30
-16z"/>
<path d="M2900 2090 c-8 -5 -10 -10 -5 -10 6 0 17 5 25 10 8 5 11 10 5 10 -5
0 -17 -5 -25 -10z"/>
<path d="M2743 2063 c9 -2 23 -2 30 0 6 3 -1 5 -18 5 -16 0 -22 -2 -12 -5z"/>
<path d="M2031 1534 c0 -11 3 -14 6 -6 3 7 2 16 -1 19 -3 4 -6 -2 -5 -13z"/>
<path d="M3898 1453 c7 -3 16 -2 19 1 4 3 -2 6 -13 5 -11 0 -14 -3 -6 -6z"/>
</g>
</svg>
